<?xml version="1.0" standalone="no"?>
<!DOCTYPE svg PUBLIC "-//W3C//DTD SVG 20010904//EN"
 "http://www.w3.org/TR/2001/REC-SVG-20010904/DTD/svg10.dtd">
<svg version="1.0" xmlns="http://www.w3.org/2000/svg"
 width="750.000000pt" height="750.000000pt" viewBox="0 0 750.000000 750.000000"
 preserveAspectRatio="xMidYMid meet">
<metadata>
Created by potrace 1.14, written by Peter Selinger 2001-2017
</metadata>
<g transform="translate(0.000000,750.000000) scale(0.100000,-0.100000)"
fill="#000000" stroke="none">
<path d="M2410 5313 c1 -1172 4 -1712 11 -1700 5 9 14 17 19 17 5 0 66 36 136
80 69 44 130 80 135 80 5 0 9 4 9 9 0 5 8 11 18 15 9 3 26 11 37 18 11 7 44
29 75 49 30 19 74 46 98 59 23 13 43 31 43 39 1 9 2 453 3 988 0 534 5 975 9
979 4 5 11 4 15 -2 4 -6 27 -22 52 -35 58 -32 103 -61 112 -74 4 -5 8 -6 8 -2
0 4 20 -6 44 -23 25 -16 47 -30 50 -30 3 0 30 -16 60 -35 30 -19 59 -35 65
-35 5 0 11 -3 13 -8 3 -7 180 -115 231 -141 15 -7 27 -18 27 -23 0 -5 5 -6 10
-3 6 3 10 1 10 -4 0 -6 3 -10 8 -9 4 1 34 -15 66 -36 33 -21 70 -43 83 -49 13
-5 23 -14 23 -19 0 -5 5 -6 10 -3 6 3 10 1 10 -5 0 -6 5 -8 10 -5 6 3 10 2 10
-4 0 -6 11 -13 25 -17 14 -3 25 -9 25 -13 0 -4 18 -16 40 -27 22 -10 40 -22
40 -26 0 -5 6 -8 14 -8 7 0 19 -7 26 -15 7 -8 16 -13 20 -10 5 3 10 2 12 -3 4
-10 105 -72 118 -72 6 0 10 -4 10 -8 0 -4 19 -18 43 -30 48 -25 80 -44 87 -53
3 -4 15 -9 28 -13 12 -4 22 -12 22 -17 0 -5 4 -9 9 -9 13 0 135 -73 139 -82 2
-5 8 -8 13 -8 5 0 38 -18 73 -40 35 -22 68 -40 75 -40 6 0 11 -4 11 -10 0 -5
7 -10 15 -10 8 0 15 -4 15 -8 0 -5 16 -14 35 -22 19 -8 35 -17 35 -20 0 -4 18
-15 40 -26 22 -10 40 -23 40 -27 0 -5 5 -5 10 -2 6 3 10 2 10 -3 0 -5 6 -9 13
-9 9 0 12 76 11 348 0 192 -2 350 -5 352 -10 8 -166 101 -186 111 -13 6 -23
14 -23 19 0 4 -7 7 -15 7 -8 0 -15 5 -15 10 0 6 -3 9 -7 8 -5 -1 -33 14 -63
34 -30 19 -70 44 -89 54 -18 10 -41 24 -50 29 -9 6 -45 28 -81 49 -36 22 -66
44 -68 48 -2 4 -8 8 -13 8 -12 0 -143 82 -147 92 -2 5 -8 6 -13 2 -5 -3 -9 0
-9 5 0 6 -3 10 -7 9 -5 -2 -39 17 -78 42 -38 24 -82 51 -97 60 -14 8 -63 38
-108 65 -45 28 -89 55 -98 60 -95 57 -148 90 -150 97 -2 4 -8 8 -13 8 -5 0
-28 12 -52 27 -23 15 -45 26 -49 25 -5 -1 -8 1 -8 6 0 4 -17 16 -37 27 -21 11
-40 23 -43 26 -3 3 -23 16 -45 28 -22 12 -69 39 -104 61 -34 22 -65 40 -67 40
-3 0 -10 5 -17 10 -31 26 -86 58 -91 52 -3 -3 -6 0 -6 6 0 7 -6 12 -14 12 -8
0 -16 3 -18 8 -4 9 -106 72 -117 72 -4 0 -16 8 -27 18 -10 9 -39 28 -64 41
-25 13 -52 29 -60 36 -8 7 -23 15 -32 18 -10 4 -18 11 -18 17 0 5 -9 10 -20
10 -11 0 -20 5 -20 10 0 6 -4 10 -9 10 -6 0 -53 27 -106 60 -53 33 -98 60
-100 60 -2 0 -24 14 -48 30 -25 17 -48 30 -51 30 -3 0 -6 -773 -6 -1717z"/>
<path d="M3739 5250 c-1 -3 -3 -142 -4 -310 l-1 -305 47 -32 c27 -18 53 -33
59 -33 5 0 10 -4 10 -10 0 -5 5 -10 11 -10 6 0 30 -13 54 -30 24 -16 47 -30
51 -30 4 0 22 -11 39 -25 18 -13 35 -21 39 -18 3 4 6 2 6 -4 0 -5 23 -22 51
-37 27 -15 48 -33 46 -39 -4 -12 -175 -115 -194 -116 -6 -1 -13 -5 -15 -9 -1
-5 -28 -22 -58 -39 -30 -16 -71 -39 -90 -50 -19 -12 -114 -66 -210 -122 -96
-56 -182 -106 -190 -111 -8 -6 -22 -13 -30 -17 -8 -3 -39 -21 -68 -40 -29 -18
-55 -33 -58 -33 -3 0 -19 -9 -35 -21 -16 -11 -29 -17 -29 -12 0 4 -4 3 -8 -3
-4 -6 -34 -26 -67 -45 -33 -19 -69 -39 -80 -46 -11 -7 -29 -17 -40 -22 -11 -6
-42 -24 -70 -41 -27 -17 -58 -33 -67 -37 -10 -3 -18 -9 -18 -13 0 -4 -11 -11
-25 -14 -14 -4 -25 -11 -25 -16 0 -6 -9 -10 -20 -10 -11 0 -20 -4 -20 -10 0
-5 -11 -12 -25 -16 -14 -3 -25 -10 -25 -15 0 -5 -7 -9 -15 -9 -8 0 -15 -5 -15
-12 0 -6 -3 -9 -6 -6 -3 4 -20 -3 -38 -15 -17 -12 -54 -33 -81 -47 -28 -14
-51 -28 -53 -32 -2 -5 -10 -8 -18 -8 -8 0 -17 -7 -20 -15 -4 -8 -10 -12 -15
-9 -11 6 -12 -396 -1 -411 4 -5 14 -14 23 -20 26 -16 163 -109 169 -115 25
-26 47 -27 85 -4 22 13 74 42 115 65 41 24 77 46 78 51 2 4 7 8 12 8 11 0 133
72 141 83 3 5 10 9 15 9 16 1 54 21 54 29 0 4 10 11 23 15 12 4 40 18 62 33
22 14 43 24 48 23 4 -1 7 2 7 8 0 5 7 10 15 10 8 0 15 5 15 10 0 6 5 10 11 10
10 0 134 71 156 90 7 5 14 10 17 10 2 0 39 20 80 45 42 25 81 45 86 45 6 0 10
4 10 10 0 5 11 12 25 16 14 3 25 9 25 13 0 3 21 17 48 31 26 13 49 27 52 30 3
3 16 11 30 18 14 6 64 36 112 64 168 102 231 138 239 138 5 0 9 3 9 8 0 4 10
12 23 18 46 22 123 67 140 82 9 8 17 11 17 6 0 -5 4 -3 9 5 5 8 17 16 27 17 9
2 20 7 23 11 3 5 29 22 56 37 28 16 58 36 68 44 9 8 17 11 17 7 0 -4 8 -1 18
8 9 8 28 20 42 26 14 6 39 20 55 31 17 11 49 30 73 42 23 12 42 26 42 31 0 4
5 5 10 2 6 -3 10 -2 10 2 0 5 22 20 50 34 27 13 50 27 50 32 0 4 5 7 11 7 6 0
21 8 32 18 21 16 22 24 21 192 -1 96 -2 180 -3 186 -1 6 -13 17 -28 25 -16 8
-63 35 -105 62 -43 26 -82 47 -88 47 -5 0 -10 5 -10 10 0 6 -5 10 -11 10 -10
0 -134 71 -156 90 -7 5 -15 10 -18 10 -3 0 -35 18 -71 40 -36 22 -70 40 -75
40 -5 0 -9 5 -9 10 0 6 -5 10 -11 10 -13 0 -153 82 -157 92 -2 5 -8 6 -13 2
-5 -3 -9 0 -9 5 0 6 -4 11 -10 11 -5 0 -62 32 -126 70 -64 39 -118 70 -120 70
-3 0 -33 18 -68 40 -35 22 -68 40 -74 40 -6 0 -20 10 -32 22 -11 12 -20 18
-20 12 0 -5 -5 -2 -10 6 -5 8 -10 13 -11 10z"/>
<path d="M4650 3703 c-8 -3 -23 -15 -34 -25 -11 -10 -31 -21 -43 -24 -13 -4
-23 -10 -23 -14 0 -4 -18 -15 -40 -24 -22 -9 -40 -20 -40 -25 0 -5 -13 -12
-30 -16 -16 -4 -30 -10 -30 -15 0 -4 -24 -20 -52 -35 -29 -15 -61 -34 -70 -43
-10 -8 -18 -12 -18 -8 0 4 -6 2 -12 -4 -27 -23 -161 -100 -174 -100 -8 0 -14
-4 -14 -10 0 -5 -19 -19 -42 -31 -24 -12 -51 -28 -60 -37 -10 -8 -18 -12 -18
-8 0 3 -26 -12 -59 -34 -32 -22 -62 -40 -65 -40 -4 0 -27 -14 -52 -30 -24 -17
-44 -28 -44 -25 0 4 -7 -1 -16 -9 -8 -9 -20 -14 -25 -11 -5 4 -9 2 -9 -2 0 -5
-30 -26 -67 -47 -38 -22 -70 -42 -73 -46 -3 -3 -21 -14 -40 -24 -75 -38 -90
-47 -90 -57 0 -5 -3 -8 -7 -7 -8 2 -75 -31 -83 -41 -4 -5 -26 -17 -115 -65
-11 -6 -22 -13 -25 -16 -12 -12 -110 -69 -129 -75 -12 -3 -21 -11 -21 -16 0
-5 -7 -9 -15 -9 -8 0 -15 -5 -15 -11 0 -5 -4 -7 -10 -4 -5 3 -10 1 -10 -4 0
-6 -4 -11 -10 -11 -9 0 -110 -58 -120 -69 -3 -4 -12 -7 -20 -9 -8 -2 -16 -8
-18 -13 -2 -5 -8 -9 -13 -9 -5 0 -26 -11 -47 -23 -20 -13 -50 -32 -67 -43 -16
-10 -33 -17 -37 -16 -5 1 -8 -2 -8 -8 0 -5 -4 -10 -8 -10 -8 0 -135 -75 -194
-114 l-28 -18 0 -202 0 -201 60 -40 c33 -22 60 -43 60 -47 0 -5 7 -8 15 -8 8
0 15 -4 15 -10 0 -5 7 -10 15 -10 8 0 15 -5 15 -12 0 -6 3 -8 7 -5 3 4 11 -1
18 -9 10 -14 15 -15 36 -3 13 8 26 16 29 19 3 3 25 16 50 29 25 13 64 37 88
53 24 15 45 28 48 28 3 0 18 9 34 20 15 11 30 17 34 13 3 -3 6 -2 6 4 0 6 14
16 30 23 17 7 30 16 30 21 0 5 4 9 10 9 11 0 233 130 265 155 10 8 23 15 27
15 4 0 32 16 62 35 29 19 56 31 60 28 3 -4 6 -1 6 5 0 11 15 20 100 64 14 7
27 15 30 18 10 10 45 31 63 36 9 4 17 11 17 16 0 5 4 7 9 3 5 -3 12 -1 16 5 3
6 39 28 78 51 40 22 86 49 102 59 17 10 41 25 55 33 51 28 75 42 80 48 6 8 59
36 83 45 9 3 17 10 17 15 0 5 5 9 10 9 6 0 36 16 66 35 30 19 58 35 63 35 5 0
14 7 21 15 6 8 15 14 18 13 4 -1 32 13 62 32 30 19 58 34 63 32 4 -1 7 1 7 6
0 4 20 18 45 32 25 14 45 28 45 33 0 4 4 6 9 2 5 -3 16 1 24 9 8 8 17 12 21 9
3 -4 6 -2 6 4 0 5 25 23 56 39 30 16 63 36 73 44 9 8 23 16 31 18 8 2 18 8 21
14 3 5 9 9 13 9 6 -1 24 9 98 56 21 12 42 23 48 23 5 0 10 4 10 9 0 5 10 11
23 15 12 3 31 14 42 24 18 17 20 30 18 178 0 87 -2 161 -2 164 -1 3 -17 14
-36 24 -19 11 -35 23 -35 28 0 4 -4 8 -10 8 -13 0 -153 89 -162 104 -4 6 -8 7
-8 2 0 -6 -5 -5 -12 2 -13 13 -33 14 -58 5z"/>
<path d="M4652 2724 c-12 -8 -22 -12 -22 -9 0 3 -10 -3 -22 -15 -12 -11 -28
-20 -35 -20 -7 0 -13 -4 -13 -10 0 -5 -7 -10 -15 -10 -8 0 -15 -5 -15 -11 0
-5 -5 -7 -10 -4 -6 3 -13 -1 -16 -9 -3 -9 -10 -13 -15 -10 -5 3 -9 0 -9 -6 0
-6 -4 -8 -10 -5 -5 3 -10 1 -10 -4 0 -6 -7 -11 -15 -11 -8 0 -15 -4 -15 -10 0
-5 -5 -10 -10 -10 -13 0 -144 -81 -148 -92 -2 -5 -7 -6 -12 -3 -5 3 -14 -1
-22 -8 -13 -13 -167 -107 -175 -107 -2 0 -9 -5 -16 -10 -23 -20 -138 -90 -147
-90 -5 0 -15 -6 -22 -14 -8 -8 -40 -29 -72 -47 -186 -109 -371 -222 -378 -234
-4 -5 -8 -7 -8 -3 0 6 -45 -20 -86 -49 -15 -11 -55 -35 -86 -51 -16 -7 -28
-18 -28 -23 0 -5 -3 -8 -7 -7 -5 1 -39 -17 -78 -40 -88 -53 -101 -61 -150 -92
-22 -14 -48 -29 -57 -33 -34 -12 -17 -32 72 -87 49 -30 90 -59 90 -63 0 -5 5
-5 10 -2 6 3 10 1 10 -4 0 -6 4 -11 9 -11 5 0 46 -25 91 -55 45 -30 86 -55 91
-55 5 0 9 -5 9 -10 0 -6 3 -9 8 -8 8 3 95 -53 100 -64 10 -22 84 10 175 74 15
11 27 17 27 14 0 -3 9 2 20 12 12 9 24 17 28 17 4 0 36 19 72 42 36 24 71 43
78 43 6 0 12 4 12 8 0 5 16 16 35 25 19 9 54 29 77 44 24 15 46 26 51 25 4 -1
7 2 7 7 0 5 8 11 18 15 9 3 35 17 57 31 22 14 52 31 68 38 15 6 27 15 27 19 0
4 7 8 15 8 8 0 15 5 15 11 0 5 5 7 10 4 6 -3 10 -1 10 4 0 6 4 11 10 11 5 0
34 16 64 35 30 19 60 35 66 35 5 0 10 5 10 10 0 6 7 10 15 10 8 0 15 5 15 11
0 5 4 8 9 4 5 -3 12 -1 15 4 7 11 120 76 123 70 1 -2 12 5 25 17 13 12 30 24
38 27 8 4 33 18 55 32 22 14 52 31 68 37 15 7 27 16 27 20 0 4 4 8 9 8 5 0 39
18 75 40 36 22 68 40 72 40 3 0 12 6 20 14 7 8 19 16 25 18 9 3 12 55 13 183
1 162 -1 179 -16 183 -10 2 -18 8 -18 12 0 5 -12 13 -27 19 -31 12 -135 71
-143 80 -3 3 -18 13 -35 21 -16 8 -37 20 -46 27 -12 10 -19 10 -37 -3z"/>
<path d="M4218 1482 c-60 -38 -174 -108 -204 -127 -186 -114 -290 -180 -292
-187 -2 -4 -9 -8 -16 -8 -7 0 -17 -5 -23 -11 -9 -9 -3 -18 23 -35 19 -13 37
-24 39 -24 2 0 34 -20 72 -45 37 -25 74 -45 81 -45 6 0 12 -5 12 -10 0 -6 8
-14 17 -17 10 -4 73 -42 141 -85 68 -43 128 -78 133 -78 5 0 9 -4 9 -10 0 -5
6 -10 13 -10 7 0 23 -9 35 -20 12 -11 24 -20 28 -20 3 0 26 -13 51 -30 24 -16
47 -30 52 -30 4 0 17 -9 29 -20 12 -12 22 -17 22 -13 0 4 4 3 8 -3 6 -8 103
-70 247 -157 11 -7 45 -29 77 -50 31 -20 59 -37 62 -37 2 0 32 -18 65 -40 33
-22 64 -40 68 -40 4 0 8 167 7 370 l0 370 -25 18 c-13 9 -27 17 -31 17 -4 0
-13 6 -19 13 -7 6 -18 12 -25 12 -7 0 -14 4 -16 8 -1 4 -30 23 -63 41 -33 19
-63 38 -66 43 -3 5 -12 11 -20 12 -21 4 -79 40 -79 49 0 5 -4 5 -10 2 -5 -3
-10 -1 -10 4 0 6 -4 11 -10 11 -13 0 -183 101 -192 114 -5 7 -8 7 -8 1 0 -7
-3 -7 -8 0 -4 6 -27 21 -52 34 -25 14 -47 28 -50 31 -12 17 -47 17 -72 2z"/>
</g>
</svg>
